<svg width="1093" height="58" viewBox="0 0 1093 58" fill="none" xmlns="http://www.w3.org/2000/svg">
<path fill-rule="evenodd" clip-rule="evenodd" d="M0 23.0983L30.5734 25.1118C61.1469 26.4542 122.294 29.139 183.441 26.4542C242.04 23.0983 303.186 15.044 364.333 17.7288C425.48 20.4135 486.627 35.1797 547.774 30.4813C606.373 26.4542 667.52 2.96268 728.667 0.277938C789.814 -2.40681 850.96 15.044 912.107 23.0983C970.706 31.8237 1002.46 31.499 1033.04 31.499C1063.61 31.499 1093 23.0983 1093 23.0983V58H1062.43C1031.85 58 970.706 58 912.107 58C850.96 58 789.814 58 728.667 58C667.52 58 606.373 58 547.774 58C486.627 58 425.48 58 364.333 58C303.186 58 242.04 58 183.441 58C122.294 58 61.1469 58 30.5734 58H0V23.0983Z" fill="#474C5F"/>
</svg>
