<svg width="1093" height="46" viewBox="0 0 1093 46" fill="none" xmlns="http://www.w3.org/2000/svg">
<path fill-rule="evenodd" clip-rule="evenodd" d="M1093 44.348C1093 44.348 1062.26 45.0186 1024.69 41.529C987.116 38.0394 950.727 31.5934 889.581 34.5498C830.981 38.2453 789.814 47.3033 728.667 44.3469C667.52 41.3904 606.373 25.1299 545.226 30.3036C486.627 34.7383 454.703 41.3904 393.556 44.3468C332.409 47.3032 269.12 46.9087 207.974 38.0394C149.375 28.4309 86.9087 39.7841 52.7524 42.3664C18.5962 44.9487 -1.75459e-06 44.348 -1.75459e-06 44.348L2.34637e-06 2.56077e-06L30.5734 5.08762e-06C61.1468 7.61448e-06 122.294 1.26682e-05 180.893 1.75114e-05C242.04 2.25651e-05 303.186 2.76188e-05 364.333 3.26725e-05C425.48 3.77262e-05 486.627 4.278e-05 545.226 4.76231e-05C606.373 5.26768e-05 667.52 5.77306e-05 728.667 6.27843e-05C789.814 6.7838e-05 850.96 7.28917e-05 909.559 7.77349e-05C970.706 8.27886e-05 1031.85 8.78423e-05 1062.43 9.03692e-05L1093 9.2896e-05L1093 44.348Z" fill="#474C5F"/>
</svg>
